<?xml version="1.0" encoding="iso-8859-1"?>
<!-- Generator: Adobe Illustrator 19.0.0, SVG Export Plug-In . SVG Version: 6.00 Build 0)  -->
<svg version="1.1" id="Capa_1" xmlns="http://www.w3.org/2000/svg" xmlns:xlink="http://www.w3.org/1999/xlink" x="0px" y="0px"
	 viewBox="0 0 480 480" style="enable-background: new 0 0 480 480; fill: #888;" xml:space="preserve">
<g>
	<g>
		<path d="M472,16h-96c-4.418,0-8,3.582-8,8v24h-88c-4.418,0-8,3.582-8,8v24h-64V8c0-4.418-3.582-8-8-8h-96c-4.418,0-8,3.582-8,8v72
			H8c-4.418,0-8,3.582-8,8v384c0,4.418,3.582,8,8,8h464c4.418,0,8-3.582,8-8V24C480,19.582,476.418,16,472,16z M96,464H16V96h80V464
			z M192,464h-80V16h80V464z M272,464h-64V96h64V464z M368,464h-80V64h80V464z M464,464h-80V32h80V464z"/>
	</g>
</g>
<g>
	<g>
		<rect x="32" y="408" width="48" height="16"/>
	</g>
</g>
<g>
	<g>
		<rect x="32" y="432" width="48" height="16"/>
	</g>
</g>
<g>
	<g>
		<rect x="128" y="408" width="48" height="16"/>
	</g>
</g>
<g>
	<g>
		<rect x="128" y="432" width="48" height="16"/>
	</g>
</g>
<g>
	<g>
		<rect x="216" y="408" width="48" height="16"/>
	</g>
</g>
<g>
	<g>
		<rect x="216" y="432" width="48" height="16"/>
	</g>
</g>
<g>
	<g>
		<rect x="304" y="408" width="48" height="16"/>
	</g>
</g>
<g>
	<g>
		<rect x="304" y="432" width="48" height="16"/>
	</g>
</g>
<g>
	<g>
		<rect x="400" y="408" width="48" height="16"/>
	</g>
</g>
<g>
	<g>
		<rect x="400" y="432" width="48" height="16"/>
	</g>
</g>
<g>
	<g>
		<path d="M448,232h-48c-4.418,0-8,3.582-8,8v144c0,4.418,3.582,8,8,8h48c4.418,0,8-3.582,8-8V240C456,235.582,452.418,232,448,232z
			 M440,376h-32V248h32V376z"/>
	</g>
</g>
<g>
	<g>
		<path d="M80,232H32c-4.418,0-8,3.582-8,8v144c0,4.418,3.582,8,8,8h48c4.418,0,8-3.582,8-8V240C88,235.582,84.418,232,80,232z
			 M72,376H40V248h32V376z"/>
	</g>
</g>
<g>
	<g>
		<path d="M176,32h-48c-4.418,0-8,3.582-8,8v48c0,4.418,3.582,8,8,8h48c4.418,0,8-3.582,8-8V40C184,35.582,180.418,32,176,32z
			 M168,80h-32V48h32V80z"/>
	</g>
</g>
<g>
	<g>
		<path d="M240,112c-13.255,0-24,10.745-24,24s10.745,24,24,24s24-10.745,24-24S253.255,112,240,112z M240,144c-4.418,0-8-3.582-8-8
			s3.582-8,8-8s8,3.582,8,8S244.418,144,240,144z"/>
	</g>
</g>
<g>
	<g>
		<path d="M328,80c-17.673,0-32,14.327-32,32s14.327,32,32,32c17.673,0,32-14.327,32-32S345.673,80,328,80z M328,128
			c-8.837,0-16-7.163-16-16s7.163-16,16-16s16,7.163,16,16S336.837,128,328,128z"/>
	</g>
</g>
<g>
</g>
<g>
</g>
<g>
</g>
<g>
</g>
<g>
</g>
<g>
</g>
<g>
</g>
<g>
</g>
<g>
</g>
<g>
</g>
<g>
</g>
<g>
</g>
<g>
</g>
<g>
</g>
<g>
</g>
</svg>
