<?xml version="1.0"?>
<svg style="fill: #888;" xmlns="http://www.w3.org/2000/svg" id="Outline" viewBox="0 0 512 512" width="512" height="512"><path d="M389.028,237.01A83.046,83.046,0,0,0,398.8,110.9a78.519,78.519,0,0,0-56.645-22.893c-43.567.621-78.943,37.405-78.859,82a82.537,82.537,0,0,0,34.292,67.016,4.3,4.3,0,0,1,1.708,3.526v10.68a23.987,23.987,0,0,0,4,43.4V304a24.027,24.027,0,0,0,24,24h32a24.028,24.028,0,0,0,24-24v-9.376a23.987,23.987,0,0,0,4-43.4V240.548A4.312,4.312,0,0,1,389.028,237.01ZM279.3,169.978c-.068-35.879,28.233-65.474,63.088-65.971.3,0,.608-.007.913-.007a62.694,62.694,0,0,1,44.27,18.3,67.046,67.046,0,0,1-7.838,101.69,20.343,20.343,0,0,0-8.433,16.562V248h-56v-7.451A20.316,20.316,0,0,0,306.882,224,66.505,66.505,0,0,1,279.3,169.978ZM359.3,312h-32a8.009,8.009,0,0,1-8-8v-8h48v8A8.009,8.009,0,0,1,359.3,312Zm16-32h-64a8,8,0,0,1,0-16h64a8,8,0,0,1,0,16Z"/><path d="M356.27,138.543a36.163,36.163,0,0,1,20.839,23.624,8,8,0,0,0,15.4-4.334,52.282,52.282,0,0,0-30.184-34.1,8,8,0,0,0-6.058,14.809Z"/><path d="M351.3,64V48a8,8,0,0,0-16,0V64a8,8,0,0,0,16,0Z"/><path d="M297.749,81.685a8.005,8.005,0,0,0,7.3-11.256l-6.508-14.617a8,8,0,0,0-14.617,6.508l6.508,14.617A8,8,0,0,0,297.749,81.685Z"/><path d="M260.064,109.058a8,8,0,0,0,5.355-13.946l-11.89-10.706A8,8,0,0,0,242.823,96.3L254.713,107A7.97,7.97,0,0,0,260.064,109.058Z"/><path d="M244.389,143.861a8,8,0,0,0-5.137-10.08l-15.217-4.943a8,8,0,1,0-4.943,15.217L234.309,149a7.99,7.99,0,0,0,10.08-5.137Z"/><path d="M231.076,179.751l-15.912,1.673a8,8,0,1,0,1.672,15.912l15.913-1.673a8,8,0,0,0-1.673-15.912Z"/><path d="M453.849,195.663l15.912,1.673a8,8,0,0,0,1.674-15.912l-15.913-1.673a8,8,0,1,0-1.673,15.912Z"/><path d="M449.815,149.392a7.987,7.987,0,0,0,2.474-.394l15.217-4.943a8,8,0,1,0-4.944-15.217l-15.216,4.943a8,8,0,0,0,2.469,15.611Z"/><path d="M431.885,107,443.774,96.3a8,8,0,1,0-10.707-11.891L421.178,95.112A8,8,0,0,0,431.885,107Z"/><path d="M388.849,81.685a8,8,0,0,0,7.313-4.748L402.67,62.32a8,8,0,0,0-14.617-6.508l-6.508,14.617a8.005,8.005,0,0,0,7.3,11.256Z"/><path d="M472,424H368v-8c0-12.011-15.632-20.76-20.422-23.155a8.052,8.052,0,0,0-1.279-.508l-78.3-23.491c-4.955-4.377-22.666-19.747-44.32-35.338C189.107,308.619,162.3,296,144,296H80v-8a8,8,0,0,0-8-8H24a8,8,0,0,0-8,8V464a8,8,0,0,0,8,8H72a8,8,0,0,0,8-8v-8h23.627c4.991.664,45.817,8.724,81.905,15.849C257.715,486.1,267.912,488,270.163,488H472a24.028,24.028,0,0,0,24-24V448A24.028,24.028,0,0,0,472,424ZM64,456H32V296H64Zm416,8a8.009,8.009,0,0,1-8,8H270.536c-4.991-.664-45.817-8.724-81.9-15.849C116.448,441.9,106.251,440,104,440H80V312h64c30.271,0,93.023,50.491,114.649,69.947a8.013,8.013,0,0,0,3.052,1.716l79.3,23.791c4.981,2.606,10.233,6.793,10.994,8.79V432a8.012,8.012,0,0,1-7.342,7.974L266.842,424.41l-54.873-31.356a8,8,0,1,0-7.938,13.892l56,32a8,8,0,0,0,2.4.9l80,16A8.026,8.026,0,0,0,344,456a24.042,24.042,0,0,0,22.629-16H472a8.009,8.009,0,0,1,8,8Z"/></svg>
